<svg width="34" height="33" viewBox="0 0 34 33" fill="none" xmlns="http://www.w3.org/2000/svg">
<g clip-path="url(#clip0_430_1355)">
<path fill-rule="evenodd" clip-rule="evenodd" d="M17 31.35C25.2014 31.35 31.85 24.7016 31.85 16.5C31.85 8.29858 25.2016 1.64996 17 1.64996C8.79858 1.64996 2.14996 8.29858 2.14996 16.5C2.14996 24.7014 8.79858 31.35 17 31.35ZM17 33C26.1126 33 33.5 25.6126 33.5 16.5C33.5 7.38723 26.1126 0 17 0C7.88723 0 0.5 7.38723 0.5 16.5C0.5 25.6126 7.88723 33 17 33Z" fill="white"/>
<path fill-rule="evenodd" clip-rule="evenodd" d="M21.2876 16.5L13.6999 11.4416V21.5585L21.2876 16.5ZM22.8205 15.539C23.5064 15.9962 23.5064 17.0039 22.8205 17.4611L13.8455 23.4446C13.078 23.9563 12.0498 23.4059 12.0498 22.4834V10.5167C12.0498 9.59417 13.078 9.04395 13.8455 9.55569L22.8205 15.539Z" fill="white"/>
</g>
<defs>
<clipPath id="clip0_430_1355">
<rect width="33" height="33" fill="white" transform="translate(0.5)"/>
</clipPath>
</defs>
</svg>
