<svg width="25" height="24" viewBox="0 0 25 24" fill="none" xmlns="http://www.w3.org/2000/svg">
<path d="M10.0801 12C10.0801 13.2405 11.0896 14.25 12.3301 14.25C13.5706 14.25 14.5801 13.2405 14.5801 12C14.5801 10.7595 13.5706 9.75 12.3301 9.75C11.0896 9.75 10.0801 10.7595 10.0801 12Z" fill="#E33C12"/>
<path d="M10.0801 19.5C10.0801 20.7405 11.0896 21.75 12.3301 21.75C13.5706 21.75 14.5801 20.7405 14.5801 19.5C14.5801 18.2595 13.5706 17.25 12.3301 17.25C11.0896 17.25 10.0801 18.2595 10.0801 19.5Z" fill="#E33C12"/>
<path d="M10.0801 4.5C10.0801 5.7405 11.0896 6.75 12.3301 6.75C13.5706 6.75 14.5801 5.7405 14.5801 4.5C14.5801 3.2595 13.5706 2.25 12.3301 2.25C11.0896 2.25 10.0801 3.2595 10.0801 4.5Z" fill="#E33C12"/>
</svg>
