<svg width="19" height="18" viewBox="0 0 19 18" fill="none" xmlns="http://www.w3.org/2000/svg">
<path d="M18.3301 15V12C18.3301 11.8011 18.2511 11.6103 18.1104 11.4697C17.9698 11.329 17.779 11.25 17.5801 11.25C17.3812 11.25 17.1904 11.329 17.0497 11.4697C16.9091 11.6103 16.8301 11.8011 16.8301 12V15C16.8301 15.1989 16.7511 15.3897 16.6104 15.5303C16.4698 15.671 16.279 15.75 16.0801 15.75H2.58008C2.38117 15.75 2.1904 15.671 2.04975 15.5303C1.9091 15.3897 1.83008 15.1989 1.83008 15V12C1.83008 11.8011 1.75106 11.6103 1.61041 11.4697C1.46976 11.329 1.27899 11.25 1.08008 11.25C0.881166 11.25 0.6904 11.329 0.549748 11.4697C0.409096 11.6103 0.330078 11.8011 0.330078 12V15C0.330078 15.5967 0.567131 16.169 0.989088 16.591C1.41104 17.0129 1.98334 17.25 2.58008 17.25H16.0801C16.6768 17.25 17.2491 17.0129 17.6711 16.591C18.093 16.169 18.3301 15.5967 18.3301 15ZM13.5451 11.085L9.79508 14.085C9.66267 14.1896 9.49884 14.2465 9.33008 14.2465C9.16132 14.2465 8.99749 14.1896 8.86508 14.085L5.11508 11.085C4.97844 10.956 4.89519 10.7805 4.8818 10.593C4.86841 10.4056 4.92586 10.22 5.04278 10.0729C5.1597 9.92583 5.32756 9.82798 5.51317 9.79874C5.69878 9.7695 5.8886 9.81098 6.04508 9.915L8.58008 11.94V1.5C8.58008 1.30109 8.6591 1.11032 8.79975 0.96967C8.9404 0.829018 9.13117 0.75 9.33008 0.75C9.52899 0.75 9.71976 0.829018 9.86041 0.96967C10.0011 1.11032 10.0801 1.30109 10.0801 1.5V11.94L12.6151 9.915C12.6906 9.84371 12.7801 9.78888 12.8779 9.75399C12.9757 9.7191 13.0797 9.70491 13.1833 9.71231C13.2869 9.71971 13.3879 9.74854 13.4797 9.79698C13.5716 9.84542 13.6524 9.91242 13.717 9.99372C13.7816 10.075 13.8287 10.1689 13.8551 10.2693C13.8816 10.3697 13.8869 10.4745 13.8708 10.5771C13.8546 10.6797 13.8173 10.7778 13.7612 10.8653C13.7052 10.9527 13.6316 11.0275 13.5451 11.085Z" fill="#E33C12"/>
</svg>
