<svg width="22" height="22" viewBox="0 0 22 22" fill="none" xmlns="http://www.w3.org/2000/svg">
<path d="M20.6261 11C20.6261 8.4473 19.612 5.99914 17.807 4.1941C16.002 2.38906 13.5538 1.375 11.0011 1.375C8.57744 1.37277 6.24216 2.28497 4.46173 3.92939C2.68129 5.57382 1.58678 7.82941 1.39681 10.2456C1.20685 12.6618 1.93543 15.0607 3.43701 16.9632C4.93859 18.8656 7.10262 20.1316 9.49684 20.5081V13.7816H7.05484V11H9.49822V8.87975C9.49822 6.468 10.9351 5.13425 13.1337 5.13425C14.187 5.13425 15.2883 5.32263 15.2883 5.32263V7.69175H14.0742C12.878 7.69175 12.5067 8.43425 12.5067 9.19463V11H15.1756L14.7493 13.7816H12.5053V20.5081C14.7693 20.1496 16.831 18.995 18.3197 17.2521C19.8083 15.5091 20.6261 13.2922 20.6261 11Z" fill="#1877F2"/>
<path d="M14.7478 13.7816L15.1741 10.9999H12.5052V9.19456C12.5052 8.43419 12.8764 7.69169 14.0727 7.69169H15.2868V5.32119C15.2868 5.32119 14.1854 5.13281 13.1322 5.13281C10.9322 5.13281 9.49669 6.46656 9.49669 8.87831V10.9999H7.05469V13.7816H9.49806V20.5081C10.4948 20.6649 11.5099 20.6649 12.5066 20.5081V13.7816H14.7478Z" fill="white"/>
</svg>
