<svg width="24" height="24" viewBox="0 0 24 24" fill="none" xmlns="http://www.w3.org/2000/svg">
<g clip-path="url(#clip0_229_441)">
<path d="M19.5294 7.17176H10.8706L9.14824 5.1247C9.09029 5.05506 9.00347 5.016 8.91294 5.01882H1.92706C0.86047 5.02658 0 5.89341 0 6.96V19.5506C0.00129412 20.6208 0.868588 21.4881 1.93882 21.4894H19.5294C20.5996 21.4881 21.4669 20.6208 21.4682 19.5506V9.11058C21.4669 8.04035 20.5996 7.17306 19.5294 7.17176Z" fill="white"/>
<path d="M22.0729 4.66358H13.4118L11.6894 2.61652C11.6315 2.54688 11.5447 2.50782 11.4541 2.51064H4.4706C3.50283 2.51223 2.68448 3.22717 2.55295 4.18594H8.92236C9.25636 4.18511 9.57348 4.33252 9.78824 4.58829L11.2588 6.33652H19.5294C21.0591 6.33911 22.2986 7.57858 22.3012 9.10829V18.9624C23.2711 18.8414 23.9992 18.0175 24 17.0401V6.60005C23.9975 5.53529 23.1377 4.67135 22.0729 4.66358Z" fill="white"/>
</g>
<defs>
<clipPath id="clip0_229_441">
<rect width="24" height="24" fill="white"/>
</clipPath>
</defs>
</svg>
