<svg width="16" height="16" viewBox="0 0 16 16" fill="none" xmlns="http://www.w3.org/2000/svg">
<g clip-path="url(#clip0_923_8386)">
<path fill-rule="evenodd" clip-rule="evenodd" d="M3.43892 8.00431C3.43892 7.49622 3.52331 7.00911 3.67392 6.55222L1.03765 4.53906C0.523852 5.58226 0.234375 6.75773 0.234375 8.00431C0.234375 9.24982 0.523496 10.4246 1.03658 11.4671L3.67143 9.45C3.52224 8.99524 3.43892 8.50991 3.43892 8.00431Z" fill="#FBBC05"/>
<path fill-rule="evenodd" clip-rule="evenodd" d="M8.06912 3.37969C9.17291 3.37969 10.1699 3.7708 10.9532 4.4108L13.232 2.13524C11.8434 0.926354 10.0631 0.179688 8.06912 0.179688C4.97353 0.179688 2.31305 1.95 1.03906 4.53667L3.67534 6.54982C4.28277 4.70591 6.0143 3.37969 8.06912 3.37969Z" fill="#EB4335"/>
<path fill-rule="evenodd" clip-rule="evenodd" d="M8.06912 12.6233C6.0143 12.6233 4.28277 11.297 3.67533 9.45312L1.03906 11.4659C2.31305 14.0529 4.97353 15.8233 8.06912 15.8233C9.97974 15.8233 11.8038 15.1449 13.1729 13.8737L10.6705 11.9392C9.96443 12.384 9.07535 12.6233 8.06912 12.6233Z" fill="#34A853"/>
<path fill-rule="evenodd" clip-rule="evenodd" d="M15.5476 8.00035C15.5476 7.53812 15.4764 7.04035 15.3696 6.57812H8.07031V9.60035H12.2718C12.0618 10.6307 11.4899 11.4229 10.6717 11.9385L13.1741 13.8731C14.6122 12.5383 15.5476 10.55 15.5476 8.00035Z" fill="#4285F4"/>
</g>
<defs>
<clipPath id="clip0_923_8386">
<rect width="16" height="16" fill="white"/>
</clipPath>
</defs>
</svg>
