<svg width="30" height="30" viewBox="0 0 30 30" fill="none" xmlns="http://www.w3.org/2000/svg">
<path d="M10.7089 22.5015C10.6952 22.637 10.707 22.7786 10.7564 22.9189C10.877 23.2571 11.1601 23.5326 11.4955 23.6364C11.8071 23.7349 12.1171 23.6694 12.2111 23.5671L12.8612 22.8695C13.0493 22.6684 13.0968 22.347 12.9863 22.0351C12.7143 21.5138 12.3498 21.3257 11.8831 21.2415L10.7089 22.5015Z" fill="white"/>
<path d="M9.8393 19.0134L8.7031 20.232C8.47225 20.4831 8.40606 20.8691 8.53495 21.239C8.67175 21.6297 8.99823 21.9477 9.389 22.0664C9.75886 22.1773 10.13 22.0911 10.3624 21.8438L11.4144 20.7155C11.6468 20.465 11.7114 20.0809 11.5825 19.7111C11.4457 19.3184 11.1174 19.0017 10.7285 18.8836C10.4182 18.7845 10.054 18.7807 9.8393 19.0134Z" fill="white"/>
<path d="M7.58684 17.0083L6.53772 18.1347C6.30655 18.3839 6.24195 18.7712 6.36957 19.1423C6.50637 19.5318 6.83285 19.8497 7.22362 19.9685C7.59285 20.0809 7.96779 19.9932 8.08464 19.8694L9.24934 18.6195C9.48177 18.3684 9.54637 17.9824 9.41749 17.6131C9.28005 17.2211 8.95357 16.9044 8.5628 16.7869C8.20339 16.6698 7.80565 16.774 7.58684 17.0083Z" fill="white"/>
<path d="M5.5345 14.7878L4.3717 16.0384C4.13927 16.2888 4.07467 16.673 4.20355 17.0409C4.33909 17.4349 4.66747 17.7515 5.05824 17.8703C5.42747 17.9805 5.80177 17.895 5.91735 17.7696L7.08332 16.5197V16.5184C7.31575 16.2711 7.38035 15.8864 7.25147 15.5171C7.11657 15.1232 6.78819 14.8065 6.39742 14.689C6.0988 14.5861 5.73749 14.5684 5.5345 14.7878Z" fill="white"/>
<path d="M20.6306 7.33002C19.8786 7.75055 18.8332 7.82592 17.8152 7.89907C17.045 7.95163 16.2505 8.00737 15.6796 8.21827L12.505 9.38962C12.4834 9.39817 12.4616 9.40323 12.4388 9.4064C12.2855 9.43047 12.1437 9.45105 12.0164 9.46878C11.2434 9.57772 11.1541 9.61097 11.0651 9.83992C10.984 10.0515 11.073 10.3564 11.2928 10.6154C11.472 10.8282 12.1734 11.4926 13.6165 11.1509L15.4243 10.9122C16.4367 10.7817 17.2483 11.4416 17.8965 11.9743L22.7583 15.8636L22.7621 15.8617C23.7232 15.4595 24.7245 14.9364 25.5757 13.911L20.6306 7.33002Z" fill="white"/>
<path d="M13.9411 7.09379C13.6529 7.12039 13.3226 7.15681 12.9762 7.19291C11.06 7.39748 9.99761 7.47791 9.45706 7.37784L4.48254 13.8527C4.66558 14.0259 4.81726 14.2058 4.93949 14.4006C5.35528 13.975 5.98354 13.823 6.59534 14.0079C7.19574 14.189 7.69703 14.6757 7.90666 15.2796C7.99564 15.5352 8.02351 15.7974 8.00071 16.0485C8.24613 16.014 8.50548 16.0282 8.76071 16.1061C9.35953 16.286 9.86271 16.774 10.0708 17.3779C10.161 17.6321 10.1895 17.8937 10.168 18.1448C10.4134 18.1103 10.6727 18.1249 10.928 18.2044C11.5255 18.3855 12.0265 18.8722 12.2361 19.4729C12.3679 19.8539 12.3729 20.2459 12.2659 20.5974C12.327 20.6091 12.3897 20.624 12.4521 20.6436C12.9882 20.8099 13.4436 21.2504 13.6396 21.7935C13.8264 22.3191 13.7454 22.8714 13.4385 23.2679L14.3211 23.9737C14.537 24.145 14.8518 24.1637 15.1457 24.0212C15.4642 23.8667 15.7049 23.5529 15.7758 23.2017C15.8056 23.0551 15.7958 22.9129 15.7622 22.7811L14.6428 21.8856C14.4924 21.765 14.4658 21.5423 14.5833 21.3878C14.702 21.2345 14.9199 21.206 15.0712 21.3267L16.4171 22.4053C16.5507 22.5123 16.9336 22.5408 17.2847 22.3755C17.654 22.1991 17.933 21.8356 18.0102 21.4299C18.0843 21.0464 17.9656 20.6747 17.7015 20.4619L16.4842 19.4878C16.3325 19.3672 16.3059 19.1439 16.4247 18.9913C16.5422 18.8361 16.7613 18.8076 16.9114 18.9302L18.6809 20.3453C18.9469 20.5569 19.3291 20.586 19.6822 20.4213C20.0483 20.2462 20.3273 19.8833 20.4064 19.4732C20.4805 19.0898 20.3618 18.7193 20.0948 18.5046L18.3247 17.0913C18.173 16.9694 18.1464 16.7467 18.2651 16.5909C18.3839 16.4383 18.6018 16.4117 18.7538 16.532C18.7538 16.532 21.4416 18.6813 21.4435 18.6813C21.5772 18.7864 21.9581 18.8162 22.3077 18.649C22.6776 18.4764 22.9547 18.1135 23.0351 17.7047C23.1079 17.3205 22.9892 16.9475 22.7235 16.7366L17.4627 12.5265C16.8591 12.0316 16.2356 11.5189 15.5114 11.6161L13.74 11.8473C12.5458 12.1342 11.4194 11.8504 10.7681 11.0803C10.3754 10.6164 10.2418 10.0426 10.4181 9.58121C10.6655 8.94123 11.1392 8.87504 11.921 8.76484C12.0379 8.74996 12.1636 8.73159 12.302 8.70974L15.444 7.55074C15.6482 7.47474 15.8743 7.42218 16.1083 7.37563C15.3005 7.06308 14.715 7.04439 13.9411 7.09379Z" fill="white"/>
<path d="M7.11311 5.86671C6.54089 5.82332 6.01839 6.25462 5.26631 7.23407L3.34287 9.73954C2.64716 10.6433 2.38654 11.2054 2.44418 11.6817C2.49041 12.0731 2.76274 12.4572 3.03286 12.6738L3.94518 13.4024L8.89943 6.95414L8.25817 6.44082C7.81737 6.08932 7.45637 5.89331 7.11311 5.86671Z" fill="white"/>
<path d="M22.9996 5.86006C22.6564 5.8816 22.2922 6.0735 21.8479 6.41993L21.1997 6.9228L26.0852 13.4236L26.7167 12.9325C27.2629 12.5088 27.5416 12.1297 27.5926 11.7387C27.6556 11.2637 27.4032 10.6971 26.7186 9.78166L24.8265 7.25213C24.0893 6.26255 23.5734 5.82333 22.9996 5.86006Z" fill="white"/>
</svg>
