<svg width="25" height="24" viewBox="0 0 25 24" fill="none" xmlns="http://www.w3.org/2000/svg">
<g clip-path="url(#clip0_235_6337)">
<path d="M12.3301 22.6648C11.9884 22.6648 11.659 22.541 11.4023 22.3162C10.4327 21.4684 9.49799 20.6717 8.67328 19.9689L8.66907 19.9653C6.25116 17.9048 4.16321 16.1254 2.71045 14.3725C1.08649 12.4129 0.330078 10.5549 0.330078 8.52521C0.330078 6.55316 1.00629 4.73383 2.23401 3.4021C3.47638 2.05463 5.18109 1.3125 7.03467 1.3125C8.42004 1.3125 9.68878 1.75049 10.8055 2.6142C11.3691 3.05017 11.88 3.58374 12.3301 4.20612C12.7803 3.58374 13.291 3.05017 13.8548 2.6142C14.9716 1.75049 16.2403 1.3125 17.6257 1.3125C19.4791 1.3125 21.184 2.05463 22.4263 3.4021C23.6541 4.73383 24.3301 6.55316 24.3301 8.52521C24.3301 10.5549 23.5739 12.4129 21.9499 14.3723C20.4971 16.1254 18.4094 17.9046 15.9918 19.9649C15.1656 20.6688 14.2294 21.4667 13.2577 22.3165C13.0012 22.541 12.6716 22.6648 12.3301 22.6648ZM7.03467 2.71838C5.57843 2.71838 4.24066 3.29956 3.26746 4.35498C2.27979 5.42633 1.73578 6.90729 1.73578 8.52521C1.73578 10.2323 2.37024 11.759 3.79279 13.4755C5.16772 15.1346 7.21283 16.8774 9.58075 18.8954L9.58514 18.899C10.413 19.6046 11.3514 20.4044 12.3281 21.2584C13.3106 20.4027 14.2505 19.6016 15.08 18.895C17.4477 16.877 19.4926 15.1346 20.8676 13.4755C22.2899 11.759 22.9244 10.2323 22.9244 8.52521C22.9244 6.90729 22.3804 5.42633 21.3927 4.35498C20.4197 3.29956 19.0817 2.71838 17.6257 2.71838C16.5589 2.71838 15.5795 3.05749 14.7147 3.7262C13.944 4.32239 13.4071 5.07605 13.0923 5.60339C12.9305 5.87457 12.6456 6.03644 12.3301 6.03644C12.0146 6.03644 11.7297 5.87457 11.5678 5.60339C11.2532 5.07605 10.7164 4.32239 9.9455 3.7262C9.08069 3.05749 8.10126 2.71838 7.03467 2.71838Z" fill="#E33C12"/>
</g>
<defs>
<clipPath id="clip0_235_6337">
<rect width="24" height="24" fill="white" transform="translate(0.330078)"/>
</clipPath>
</defs>
</svg>
