<svg width="24" height="25" viewBox="0 0 24 25" fill="none" xmlns="http://www.w3.org/2000/svg">
<g clip-path="url(#clip0_10_3315)">
<path d="M12 2.84685C15.206 2.84685 15.5824 2.86114 16.8496 2.9183C18.0215 2.9707 18.655 3.16602 19.079 3.33275C19.6411 3.55189 20.0413 3.80913 20.4605 4.22835C20.8797 4.64756 21.1417 5.04772 21.3561 5.60985C21.5181 6.03382 21.7182 6.66741 21.7706 7.8393C21.8277 9.10647 21.842 9.48281 21.842 12.6888C21.842 15.8949 21.8277 16.2712 21.7706 17.5384C21.7182 18.7103 21.5228 19.3439 21.3561 19.7678C21.137 20.33 20.8797 20.7301 20.4605 21.1493C20.0413 21.5686 19.6411 21.8306 19.079 22.0449C18.655 22.2069 18.0215 22.407 16.8496 22.4594C15.5824 22.5166 15.206 22.5308 12 22.5308C8.79397 22.5308 8.41763 22.5166 7.15046 22.4594C5.97857 22.407 5.34498 22.2117 4.921 22.0449C4.35888 21.8258 3.95872 21.5686 3.5395 21.1493C3.12029 20.7301 2.85828 20.33 2.64391 19.7678C2.48194 19.3439 2.28186 18.7103 2.22946 17.5384C2.17229 16.2712 2.158 15.8949 2.158 12.6888C2.158 9.48281 2.17229 9.10647 2.22946 7.8393C2.28186 6.66741 2.47718 6.03382 2.64391 5.60985C2.86304 5.04772 3.12029 4.64756 3.5395 4.22835C3.95872 3.80913 4.35888 3.54712 4.921 3.33275C5.34498 3.17078 5.97857 2.9707 7.15046 2.9183C8.41763 2.85637 8.79874 2.84685 12 2.84685ZM12 0.684082C8.74157 0.684082 8.33188 0.698373 7.05042 0.755539C5.77372 0.812705 4.90195 1.01755 4.13974 1.3129C3.34895 1.61779 2.68202 2.03224 2.01509 2.69917C1.34815 3.3661 0.938468 4.03779 0.628821 4.82382C0.333466 5.58603 0.128623 6.4578 0.071457 7.73926C0.0142914 9.01596 0 9.42565 0 12.6841C0 15.9425 0.0142914 16.3522 0.071457 17.6337C0.128623 18.9104 0.333466 19.7821 0.628821 20.5491C0.933704 21.3399 1.34815 22.0068 2.01509 22.6738C2.68202 23.3407 3.35371 23.7504 4.13974 24.06C4.90195 24.3554 5.77372 24.5602 7.05519 24.6174C8.33665 24.6746 8.74157 24.6888 12.0048 24.6888C15.268 24.6888 15.6729 24.6746 16.9544 24.6174C18.2311 24.5602 19.1028 24.3554 19.8698 24.06C20.6606 23.7551 21.3275 23.3407 21.9945 22.6738C22.6614 22.0068 23.0711 21.3351 23.3807 20.5491C23.6761 19.7869 23.8809 18.9151 23.9381 17.6337C23.9953 16.3522 24.0095 15.9473 24.0095 12.6841C24.0095 9.42088 23.9953 9.01596 23.9381 7.7345C23.8809 6.4578 23.6761 5.58603 23.3807 4.81906C23.0758 4.02827 22.6614 3.36133 21.9945 2.6944C21.3275 2.02747 20.6558 1.61779 19.8698 1.30814C19.1076 1.01278 18.2358 0.807941 16.9544 0.750775C15.6681 0.698373 15.2584 0.684082 12 0.684082Z" fill="#E33C12"/>
<path d="M12.0003 6.52441C8.59894 6.52441 5.83594 9.28265 5.83594 12.6888C5.83594 16.0949 8.59417 18.8531 12.0003 18.8531C15.4064 18.8531 18.1646 16.0949 18.1646 12.6888C18.1646 9.28265 15.4064 6.52441 12.0003 6.52441ZM12.0003 16.6856C9.78989 16.6856 7.9987 14.8944 7.9987 12.684C7.9987 10.4736 9.78989 8.68241 12.0003 8.68241C14.2107 8.68241 16.0019 10.4736 16.0019 12.684C16.0019 14.8944 14.2107 16.6856 12.0003 16.6856Z" fill="#E33C12"/>
<path d="M18.4073 7.71522C19.2018 7.71522 19.846 7.07111 19.846 6.27656C19.846 5.482 19.2018 4.83789 18.4073 4.83789C17.6127 4.83789 16.9686 5.482 16.9686 6.27656C16.9686 7.07111 17.6127 7.71522 18.4073 7.71522Z" fill="#E33C12"/>
</g>
<defs>
<clipPath id="clip0_10_3315">
<rect width="24" height="24" fill="white" transform="translate(0 0.684082)"/>
</clipPath>
</defs>
</svg>
