<svg width="24" height="24" viewBox="0 0 24 24" fill="none" xmlns="http://www.w3.org/2000/svg">
<g clip-path="url(#clip0_1_1908)">
<path d="M8.53967 7.48828H9.94592C9.94592 6.03506 10.1529 4.35708 8.81422 3.01847C8.39385 2.59809 7.99602 2.26519 7.64506 1.97147C6.71699 1.19475 6.34039 0.845906 6.34039 0H4.93414V10.3784C4.43099 10.041 3.8263 9.84375 3.17633 9.84375C1.43164 9.84375 0.0122681 11.2631 0.0122681 13.0078C0.0122681 14.7525 1.43164 16.1719 3.17633 16.1719C4.93171 16.1719 6.37016 14.7322 6.33889 12.9492H6.34039V2.70848C6.78374 3.09577 7.2815 3.47447 7.81986 4.01278C8.71185 4.90486 8.53967 6.0757 8.53967 7.48828Z" fill="white"/>
<path d="M11.9409 7.25074V18.2066C11.4378 17.8691 10.8331 17.6719 10.1831 17.6719C8.43842 17.6719 7.01904 19.0913 7.01904 20.836C7.01904 22.5807 8.43842 24.0001 10.1831 24.0001C11.9278 24.0001 13.3472 22.5807 13.3472 20.836V11.1844C15.6778 10.7228 20.2665 9.8141 22.5815 9.35561V15.394C22.0784 15.0566 21.4737 14.8594 20.8237 14.8594C19.079 14.8594 17.6597 16.2788 17.6597 18.0235C17.6597 19.7681 19.079 21.1875 20.8237 21.1875C22.5684 21.1875 23.9878 19.7681 23.9878 18.0235C23.9878 17.2483 23.9878 5.45355 23.9878 4.86255L11.9409 7.25074Z" fill="white"/>
</g>
<defs>
<clipPath id="clip0_1_1908">
<rect width="24" height="24" fill="white"/>
</clipPath>
</defs>
</svg>
