<svg width="414" height="49" viewBox="0 0 414 49" fill="none" xmlns="http://www.w3.org/2000/svg">
<mask id="mask0_235_6091" style="mask-type:luminance" maskUnits="userSpaceOnUse" x="0" y="0" width="49" height="49">
<path d="M0 0.203884H48.5922V48.7961H0V0.203884Z" fill="white"/>
</mask>
<g mask="url(#mask0_235_6091)">
<path d="M31.6989 40.4443V43.1421C31.6989 45.4147 29.8809 46.8543 27.9975 46.897C26.8626 46.9228 25.704 46.4412 24.9052 45.3288C24.4474 44.6913 24.2011 43.9265 24.2012 43.1416C24.2013 39.4682 24.2013 8.64574 24.2013 5.69319C24.2013 5.20718 24.0907 4.728 23.8778 4.29114L23.812 4.15618C22.1068 0.658301 16.7984 1.88212 16.7984 5.80813C16.7985 14.0051 16.7985 26.7991 16.7985 33.7065C16.7985 37.0267 12.7648 38.6671 10.447 36.2899C9.77308 35.5986 9.39582 34.6713 9.39582 33.706V16.7726C9.39582 13.4214 5.33429 11.754 2.97956 14.1386C2.28674 14.8402 1.89819 15.7865 1.89819 16.7726V30.7638" stroke="black" stroke-width="2" stroke-miterlimit="10" stroke-linecap="round" stroke-linejoin="round"/>
<path d="M46.694 20.1343V33.6526C46.694 34.2613 46.5457 34.8609 46.2621 35.3996C45.5338 36.7825 44.2599 37.4063 42.9926 37.4073C41.0872 37.4089 39.1964 36.0027 39.1964 33.6526V16.7712C39.1964 13.8171 35.9388 12.0238 33.4426 13.6035C32.3569 14.2907 31.6987 15.4861 31.6987 16.7712V30.9537" stroke="black" stroke-width="2" stroke-miterlimit="10" stroke-linecap="round" stroke-linejoin="round"/>
</g>
<g clip-path="url(#clip0_235_6091)">
<mask id="mask1_235_6091" style="mask-type:luminance" maskUnits="userSpaceOnUse" x="45" y="0" width="49" height="49">
<path d="M45 0.203884H93.5922V48.7961H45V0.203884Z" fill="white"/>
</mask>
<g mask="url(#mask1_235_6091)">
<path d="M76.6989 40.4443V43.1421C76.6989 45.4147 74.8809 46.8543 72.9975 46.897C71.8626 46.9228 70.704 46.4412 69.9052 45.3288C69.4474 44.6913 69.2011 43.9265 69.2012 43.1416C69.2013 39.4682 69.2013 8.64574 69.2013 5.69319C69.2013 5.20718 69.0907 4.728 68.8778 4.29114L68.812 4.15618C67.1068 0.658301 61.7984 1.88212 61.7984 5.80813C61.7985 14.0051 61.7985 26.7991 61.7985 33.7065C61.7985 37.0267 57.7648 38.6671 55.447 36.2899C54.7731 35.5986 54.3958 34.6713 54.3958 33.706V16.7726C54.3958 13.4214 50.3343 11.754 47.9796 14.1386C47.2867 14.8402 46.8982 15.7865 46.8982 16.7726V30.7638" stroke="black" stroke-width="2" stroke-miterlimit="10" stroke-linecap="round" stroke-linejoin="round"/>
<path d="M91.694 20.1343V33.6526C91.694 34.2613 91.5457 34.8609 91.2621 35.3996C90.5338 36.7825 89.2599 37.4063 87.9926 37.4073C86.0872 37.4089 84.1964 36.0027 84.1964 33.6526V16.7712C84.1964 13.8171 80.9388 12.0238 78.4426 13.6035C77.3569 14.2907 76.6987 15.4861 76.6987 16.7712V30.9537" stroke="black" stroke-width="2" stroke-miterlimit="10" stroke-linecap="round" stroke-linejoin="round"/>
</g>
</g>
<g clip-path="url(#clip1_235_6091)">
<mask id="mask2_235_6091" style="mask-type:luminance" maskUnits="userSpaceOnUse" x="90" y="0" width="50" height="49">
<path d="M90.5923 0.203884H139.185V48.7961H90.5923V0.203884Z" fill="white"/>
</mask>
<g mask="url(#mask2_235_6091)">
<path d="M122.291 40.4443V43.1421C122.291 45.4147 120.473 46.8543 118.59 46.897C117.455 46.9228 116.296 46.4412 115.497 45.3288C115.04 44.6913 114.793 43.9265 114.793 43.1416C114.794 39.4682 114.794 8.64574 114.794 5.69319C114.794 5.20718 114.683 4.728 114.47 4.29114L114.404 4.15618C112.699 0.658301 107.391 1.88212 107.391 5.80813C107.391 14.0051 107.391 26.7991 107.391 33.7065C107.391 37.0267 103.357 38.6671 101.039 36.2899C100.365 35.5986 99.9881 34.6713 99.9881 33.706V16.7726C99.9881 13.4214 95.9266 11.754 93.5718 14.1386C92.879 14.8402 92.4905 15.7865 92.4905 16.7726V30.7638" stroke="black" stroke-width="2" stroke-miterlimit="10" stroke-linecap="round" stroke-linejoin="round"/>
<path d="M137.286 20.1343V33.6526C137.286 34.2613 137.138 34.8609 136.854 35.3996C136.126 36.7825 134.852 37.4063 133.585 37.4073C131.679 37.4089 129.789 36.0027 129.789 33.6526V16.7712C129.789 13.8171 126.531 12.0238 124.035 13.6035C122.949 14.2907 122.291 15.4861 122.291 16.7712V30.9537" stroke="black" stroke-width="2" stroke-miterlimit="10" stroke-linecap="round" stroke-linejoin="round"/>
</g>
</g>
<g clip-path="url(#clip2_235_6091)">
<mask id="mask3_235_6091" style="mask-type:luminance" maskUnits="userSpaceOnUse" x="136" y="0" width="49" height="49">
<path d="M136.184 0.203884H184.777V48.7961H136.184V0.203884Z" fill="white"/>
</mask>
<g mask="url(#mask3_235_6091)">
<path d="M167.883 40.4443V43.1421C167.883 45.4147 166.065 46.8543 164.182 46.897C163.047 46.9228 161.888 46.4412 161.09 45.3288C160.632 44.6913 160.385 43.9265 160.385 43.1416C160.386 39.4682 160.386 8.64574 160.386 5.69319C160.386 5.20718 160.275 4.728 160.062 4.29114L159.996 4.15618C158.291 0.658301 152.983 1.88212 152.983 5.80813C152.983 14.0051 152.983 26.7991 152.983 33.7065C152.983 37.0267 148.949 38.6671 146.631 36.2899C145.957 35.5986 145.58 34.6713 145.58 33.706V16.7726C145.58 13.4214 141.519 11.754 139.164 14.1386C138.471 14.8402 138.083 15.7865 138.083 16.7726V30.7638" stroke="black" stroke-width="2" stroke-miterlimit="10" stroke-linecap="round" stroke-linejoin="round"/>
<path d="M182.878 20.1343V33.6526C182.878 34.2613 182.73 34.8609 182.446 35.3996C181.718 36.7825 180.444 37.4063 179.177 37.4073C177.272 37.4089 175.381 36.0027 175.381 33.6526V16.7712C175.381 13.8171 172.123 12.0238 169.627 13.6035C168.541 14.2907 167.883 15.4861 167.883 16.7712V30.9537" stroke="black" stroke-width="2" stroke-miterlimit="10" stroke-linecap="round" stroke-linejoin="round"/>
</g>
</g>
<g clip-path="url(#clip3_235_6091)">
<mask id="mask4_235_6091" style="mask-type:luminance" maskUnits="userSpaceOnUse" x="181" y="0" width="50" height="49">
<path d="M181.777 0.203884H230.369V48.7961H181.777V0.203884Z" fill="white"/>
</mask>
<g mask="url(#mask4_235_6091)">
<path d="M213.476 40.4443V43.1421C213.476 45.4147 211.657 46.8543 209.774 46.897C208.639 46.9228 207.481 46.4412 206.682 45.3288C206.224 44.6913 205.978 43.9265 205.978 43.1416C205.978 39.4682 205.978 8.64574 205.978 5.69319C205.978 5.20718 205.867 4.728 205.654 4.29114L205.589 4.15618C203.883 0.658301 198.575 1.88212 198.575 5.80813C198.575 14.0051 198.575 26.7991 198.575 33.7065C198.575 37.0267 194.541 38.6671 192.224 36.2899C191.55 35.5986 191.172 34.6713 191.172 33.706V16.7726C191.172 13.4214 187.111 11.754 184.756 14.1386C184.063 14.8402 183.675 15.7865 183.675 16.7726V30.7638" stroke="black" stroke-width="2" stroke-miterlimit="10" stroke-linecap="round" stroke-linejoin="round"/>
<path d="M228.471 20.1343V33.6526C228.471 34.2613 228.322 34.8609 228.039 35.3996C227.31 36.7825 226.037 37.4063 224.769 37.4073C222.864 37.4089 220.973 36.0027 220.973 33.6526V16.7712C220.973 13.8171 217.715 12.0238 215.219 13.6035C214.134 14.2907 213.475 15.4861 213.475 16.7712V30.9537" stroke="black" stroke-width="2" stroke-miterlimit="10" stroke-linecap="round" stroke-linejoin="round"/>
</g>
</g>
<g clip-path="url(#clip4_235_6091)">
<mask id="mask5_235_6091" style="mask-type:luminance" maskUnits="userSpaceOnUse" x="227" y="0" width="49" height="49">
<path d="M227.369 0.203884H275.961V48.7961H227.369V0.203884Z" fill="white"/>
</mask>
<g mask="url(#mask5_235_6091)">
<path d="M259.068 40.4443V43.1421C259.068 45.4147 257.25 46.8543 255.366 46.897C254.232 46.9228 253.073 46.4412 252.274 45.3288C251.816 44.6913 251.57 43.9265 251.57 43.1416C251.57 39.4682 251.57 8.64574 251.57 5.69319C251.57 5.20718 251.46 4.728 251.247 4.29114L251.181 4.15618C249.476 0.658301 244.167 1.88212 244.167 5.80813C244.167 14.0051 244.167 26.7991 244.167 33.7065C244.167 37.0267 240.134 38.6671 237.816 36.2899C237.142 35.5986 236.765 34.6713 236.765 33.706V16.7726C236.765 13.4214 232.703 11.754 230.348 14.1386C229.656 14.8402 229.267 15.7865 229.267 16.7726V30.7638" stroke="black" stroke-width="2" stroke-miterlimit="10" stroke-linecap="round" stroke-linejoin="round"/>
<path d="M274.063 20.1343V33.6526C274.063 34.2613 273.915 34.8609 273.631 35.3996C272.903 36.7825 271.629 37.4063 270.362 37.4073C268.456 37.4089 266.565 36.0027 266.565 33.6526V16.7712C266.565 13.8171 263.308 12.0238 260.812 13.6035C259.726 14.2907 259.068 15.4861 259.068 16.7712V30.9537" stroke="black" stroke-width="2" stroke-miterlimit="10" stroke-linecap="round" stroke-linejoin="round"/>
</g>
</g>
<g clip-path="url(#clip5_235_6091)">
<mask id="mask6_235_6091" style="mask-type:luminance" maskUnits="userSpaceOnUse" x="272" y="0" width="50" height="49">
<path d="M272.961 0.203884H321.553V48.7961H272.961V0.203884Z" fill="white"/>
</mask>
<g mask="url(#mask6_235_6091)">
<path d="M304.66 40.4443V43.1421C304.66 45.4147 302.842 46.8543 300.959 46.897C299.824 46.9228 298.665 46.4412 297.866 45.3288C297.409 44.6913 297.162 43.9265 297.162 43.1416C297.162 39.4682 297.162 8.64574 297.162 5.69319C297.162 5.20718 297.052 4.728 296.839 4.29114L296.773 4.15618C295.068 0.658301 289.76 1.88212 289.76 5.80813C289.76 14.0051 289.76 26.7991 289.76 33.7065C289.76 37.0267 285.726 38.6671 283.408 36.2899C282.734 35.5986 282.357 34.6713 282.357 33.706V16.7726C282.357 13.4214 278.295 11.754 275.941 14.1386C275.248 14.8402 274.859 15.7865 274.859 16.7726V30.7638" stroke="black" stroke-width="2" stroke-miterlimit="10" stroke-linecap="round" stroke-linejoin="round"/>
<path d="M319.655 20.1343V33.6526C319.655 34.2613 319.507 34.8609 319.223 35.3996C318.495 36.7825 317.221 37.4063 315.954 37.4073C314.048 37.4089 312.158 36.0027 312.158 33.6526V16.7712C312.158 13.8171 308.9 12.0238 306.404 13.6035C305.318 14.2907 304.66 15.4861 304.66 16.7712V30.9537" stroke="black" stroke-width="2" stroke-miterlimit="10" stroke-linecap="round" stroke-linejoin="round"/>
</g>
</g>
<g clip-path="url(#clip6_235_6091)">
<mask id="mask7_235_6091" style="mask-type:luminance" maskUnits="userSpaceOnUse" x="318" y="0" width="50" height="49">
<path d="M318.553 0.203884H367.145V48.7961H318.553V0.203884Z" fill="white"/>
</mask>
<g mask="url(#mask7_235_6091)">
<path d="M350.252 40.4443V43.1421C350.252 45.4147 348.434 46.8543 346.551 46.897C345.416 46.9228 344.257 46.4412 343.458 45.3288C343.001 44.6913 342.754 43.9265 342.754 43.1416C342.754 39.4682 342.754 8.64574 342.754 5.69319C342.754 5.20718 342.644 4.728 342.431 4.29114L342.365 4.15618C340.66 0.658301 335.352 1.88212 335.352 5.80813C335.352 14.0051 335.352 26.7991 335.352 33.7065C335.352 37.0267 331.318 38.6671 329 36.2899C328.326 35.5986 327.949 34.6713 327.949 33.706V16.7726C327.949 13.4214 323.888 11.754 321.533 14.1386C320.84 14.8402 320.451 15.7865 320.451 16.7726V30.7638" stroke="black" stroke-width="2" stroke-miterlimit="10" stroke-linecap="round" stroke-linejoin="round"/>
<path d="M365.247 20.1343V33.6526C365.247 34.2613 365.099 34.8609 364.815 35.3996C364.087 36.7825 362.813 37.4063 361.546 37.4073C359.64 37.4089 357.75 36.0027 357.75 33.6526V16.7712C357.75 13.8171 354.492 12.0238 351.996 13.6035C350.91 14.2907 350.252 15.4861 350.252 16.7712V30.9537" stroke="black" stroke-width="2" stroke-miterlimit="10" stroke-linecap="round" stroke-linejoin="round"/>
</g>
</g>
<g clip-path="url(#clip7_235_6091)">
<mask id="mask8_235_6091" style="mask-type:luminance" maskUnits="userSpaceOnUse" x="364" y="0" width="49" height="49">
<path d="M364.146 0.203884H412.738V48.7961H364.146V0.203884Z" fill="white"/>
</mask>
<g mask="url(#mask8_235_6091)">
<path d="M395.844 40.4443V43.1421C395.844 45.4147 394.026 46.8543 392.143 46.897C391.008 46.9228 389.85 46.4412 389.051 45.3288C388.593 44.6913 388.347 43.9265 388.347 43.1416C388.347 39.4682 388.347 8.64574 388.347 5.69319C388.347 5.20718 388.236 4.728 388.023 4.29114L387.957 4.15618C386.252 0.658301 380.944 1.88212 380.944 5.80813C380.944 14.0051 380.944 26.7991 380.944 33.7065C380.944 37.0267 376.91 38.6671 374.593 36.2899C373.919 35.5986 373.541 34.6713 373.541 33.706V16.7726C373.541 13.4214 369.48 11.754 367.125 14.1386C366.432 14.8402 366.044 15.7865 366.044 16.7726V30.7638" stroke="black" stroke-width="2" stroke-miterlimit="10" stroke-linecap="round" stroke-linejoin="round"/>
<path d="M410.839 20.1343V33.6526C410.839 34.2613 410.691 34.8609 410.408 35.3996C409.679 36.7825 408.405 37.4063 407.138 37.4073C405.233 37.4089 403.342 36.0027 403.342 33.6526V16.7712C403.342 13.8171 400.084 12.0238 397.588 13.6035C396.502 14.2907 395.844 15.4861 395.844 16.7712V30.9537" stroke="black" stroke-width="2" stroke-miterlimit="10" stroke-linecap="round" stroke-linejoin="round"/>
</g>
</g>
<defs>
<clipPath id="clip0_235_6091">
<rect width="48.5922" height="48.5922" fill="white" transform="translate(45.5923 0.203888)"/>
</clipPath>
<clipPath id="clip1_235_6091">
<rect width="48.5922" height="48.5922" fill="white" transform="translate(91.1846 0.203888)"/>
</clipPath>
<clipPath id="clip2_235_6091">
<rect width="48.5922" height="48.5922" fill="white" transform="translate(136.777 0.203888)"/>
</clipPath>
<clipPath id="clip3_235_6091">
<rect width="48.5922" height="48.5922" fill="white" transform="translate(182.369 0.203888)"/>
</clipPath>
<clipPath id="clip4_235_6091">
<rect width="48.5922" height="48.5922" fill="white" transform="translate(227.961 0.203888)"/>
</clipPath>
<clipPath id="clip5_235_6091">
<rect width="48.5922" height="48.5922" fill="white" transform="translate(273.553 0.203888)"/>
</clipPath>
<clipPath id="clip6_235_6091">
<rect width="48.5922" height="48.5922" fill="white" transform="translate(319.146 0.203888)"/>
</clipPath>
<clipPath id="clip7_235_6091">
<rect width="48.5922" height="48.5922" fill="white" transform="translate(364.738 0.203888)"/>
</clipPath>
</defs>
</svg>
