<svg width="20" height="20" viewBox="0 0 20 20" fill="none" xmlns="http://www.w3.org/2000/svg">
<path fill-rule="evenodd" clip-rule="evenodd" d="M14.1663 11.0833V7.50001C14.1663 5.50001 12.7497 3.83334 10.833 3.41667V2.50001C10.833 2.08334 10.4163 1.66667 9.99967 1.66667C9.58301 1.66667 9.16634 2.08334 9.16634 2.50001V3.41667C7.24967 3.83334 5.83301 5.50001 5.83301 7.50001V11.1667C4.91634 11.5833 3.33301 12.75 3.33301 15C3.33301 15.4167 3.74967 15.8333 4.16634 15.8333H7.49967C7.49967 17.2141 8.61896 18.3333 9.99967 18.3333C11.3804 18.3333 12.4997 17.2141 12.4997 15.8333H15.833C16.2497 15.8333 16.6663 15.4167 16.6663 15C16.6663 12.75 15.083 11.5833 14.1663 11.0833ZM5.16634 14.1667H14.9163C14.4688 13.1224 13.554 12.7124 13.1876 12.5482C13.1447 12.529 13.1092 12.5131 13.083 12.5C12.7497 12.3333 12.4997 12 12.4997 11.6667V7.50001C12.4997 6.16667 11.4163 5.00001 9.99967 5.00001C8.58301 5.00001 7.49967 6.16667 7.49967 7.50001V11.6667C7.49967 12 7.24967 12.3333 6.99967 12.5C6.92971 12.5466 6.82671 12.5921 6.70377 12.6463C6.24096 12.8503 5.49556 13.179 5.16634 14.1667ZM9.99967 16.6667C9.53944 16.6667 9.16634 16.2936 9.16634 15.8333H10.833C10.833 16.2936 10.4599 16.6667 9.99967 16.6667Z" fill="#191D23"/>
</svg>
