<svg width="18" height="18" viewBox="0 0 18 18" fill="none" xmlns="http://www.w3.org/2000/svg">
<path d="M16.6548 6.8966L4.0162 0.326777C3.60346 0.109449 3.1356 -0.00327463 2.66022 7.24219e-05C2.18485 0.00341948 1.71891 0.122718 1.30982 0.345833C0.911263 0.555856 0.580139 0.859335 0.350086 1.22544C0.120034 1.59154 -0.000750831 2.00723 3.5118e-06 2.43026V15.5699C-0.000750831 15.9929 0.120034 16.4086 0.350086 16.7747C0.580139 17.1408 0.911263 17.4443 1.30982 17.6543C1.71895 17.8773 2.18487 17.9966 2.66022 17.9999C3.13558 18.0033 3.60342 17.8906 4.0162 17.6734L16.6548 11.1036C17.0624 10.8955 17.4021 10.5907 17.6387 10.2208C17.8752 9.85093 18 9.42942 18 9.00008C18 8.57075 17.8752 8.14924 17.6387 7.77934C17.4021 7.40944 17.0624 7.10464 16.6548 6.8966Z" fill="white"/>
</svg>
