<svg width="14" height="18" viewBox="0 0 14 18" fill="none" xmlns="http://www.w3.org/2000/svg">
<path fill-rule="evenodd" clip-rule="evenodd" d="M3.66634 6.5V4C3.66634 2.15905 5.15873 0.666664 6.99967 0.666664C8.84062 0.666664 10.333 2.15905 10.333 4V6.5H11.9997C12.9201 6.5 13.6663 7.24619 13.6663 8.16666V15.6667C13.6663 16.5871 12.9201 17.3333 11.9997 17.3333H1.99967C1.0792 17.3333 0.333008 16.5871 0.333008 15.6667V8.16666C0.333008 7.24619 1.0792 6.5 1.99967 6.5H3.66634ZM8.66634 4V6.5H5.33301V4C5.33301 3.07952 6.0792 2.33333 6.99967 2.33333C7.92015 2.33333 8.66634 3.07952 8.66634 4ZM1.99967 8.16666V15.6667H11.9997V8.16666H1.99967Z" fill="#191D23"/>
</svg>
