<svg width="28" height="28" viewBox="0 0 28 28" fill="none" xmlns="http://www.w3.org/2000/svg">
<path d="M0.523364 11.8542C0.234336 11.8542 0 12.0886 0 12.3776V15.6225C0 15.9115 0.234336 16.1458 0.523364 16.1458C0.812393 16.1458 1.04673 15.9115 1.04673 15.6225V12.3776C1.04673 12.0886 0.812393 11.8542 0.523364 11.8542Z" fill="white"/>
<path d="M2.59587 9.21118C2.30685 9.21118 2.07251 9.44552 2.07251 9.73455V18.2654C2.07251 18.5544 2.30685 18.7888 2.59587 18.7888C2.8849 18.7888 3.11924 18.5544 3.11924 18.2654V9.73455C3.11924 9.44552 2.8849 9.21118 2.59587 9.21118Z" fill="white"/>
<path d="M4.66838 10.1271C4.37936 10.1271 4.14502 10.3614 4.14502 10.6504V17.3495C4.14502 17.6385 4.37936 17.8729 4.66838 17.8729C4.95741 17.8729 5.19175 17.6385 5.19175 17.3495V10.6504C5.19175 10.3614 4.95741 10.1271 4.66838 10.1271Z" fill="white"/>
<path d="M6.74095 11.8542C6.45193 11.8542 6.21759 12.0886 6.21759 12.3776V15.6225C6.21759 15.9115 6.45193 16.1458 6.74095 16.1458C7.02998 16.1458 7.26432 15.9115 7.26432 15.6225V12.3776C7.26432 12.0886 7.02998 11.8542 6.74095 11.8542Z" fill="white"/>
<path d="M8.81871 7.29565C8.52969 7.29565 8.29535 7.52999 8.29535 7.81902V20.1809C8.29535 20.4699 8.52969 20.7043 8.81871 20.7043C9.10774 20.7043 9.34208 20.4699 9.34208 20.1809V7.81902C9.34208 7.52999 9.10774 7.29565 8.81871 7.29565Z" fill="white"/>
<path d="M10.8912 9.84973C10.6022 9.84973 10.3679 10.0841 10.3679 10.3731V17.6269C10.3679 17.916 10.6022 18.1503 10.8912 18.1503C11.1803 18.1503 11.4146 17.916 11.4146 17.6269V10.3731C11.4146 10.0841 11.1803 9.84973 10.8912 9.84973Z" fill="white"/>
<path d="M12.9533 10.7238C12.6643 10.7238 12.4299 10.9581 12.4299 11.2471V16.7529C12.4299 17.0419 12.6643 17.2763 12.9533 17.2763C13.2423 17.2763 13.4767 17.0419 13.4767 16.7529V11.2471C13.4767 10.9581 13.2423 10.7238 12.9533 10.7238Z" fill="white"/>
<path d="M15.0467 11.8542C14.7577 11.8542 14.5234 12.0886 14.5234 12.3776V15.6225C14.5234 15.9115 14.7577 16.1458 15.0467 16.1458C15.3358 16.1458 15.5701 15.9115 15.5701 15.6225V12.3776C15.5701 12.0886 15.3358 11.8542 15.0467 11.8542Z" fill="white"/>
<path d="M17.1088 10.7238C16.8198 10.7238 16.5854 10.9581 16.5854 11.2471V16.7529C16.5854 17.0419 16.8198 17.2763 17.1088 17.2763C17.3978 17.2763 17.6322 17.0419 17.6322 16.7529V11.2471C17.6322 10.9581 17.3978 10.7238 17.1088 10.7238Z" fill="white"/>
<path d="M19.1813 9.84973C18.8923 9.84973 18.658 10.0841 18.658 10.3731V17.6269C18.658 17.916 18.8923 18.1503 19.1813 18.1503C19.4704 18.1503 19.7047 17.916 19.7047 17.6269V10.3731C19.7047 10.0841 19.4704 9.84973 19.1813 9.84973Z" fill="white"/>
<path d="M21.2591 7.29565C20.9701 7.29565 20.7357 7.52999 20.7357 7.81902V20.1809C20.7357 20.4699 20.9701 20.7043 21.2591 20.7043C21.5481 20.7043 21.7824 20.4699 21.7824 20.1809V7.81902C21.7824 7.52999 21.5481 7.29565 21.2591 7.29565Z" fill="white"/>
<path d="M23.3316 10.1271C23.0426 10.1271 22.8082 10.3614 22.8082 10.6504V17.3495C22.8082 17.6385 23.0426 17.8729 23.3316 17.8729C23.6206 17.8729 23.855 17.6385 23.855 17.3495V10.6504C23.855 10.3614 23.6206 10.1271 23.3316 10.1271Z" fill="white"/>
<path d="M25.4041 11.8542C25.1151 11.8542 24.8807 12.0886 24.8807 12.3776V15.6225C24.8807 15.9115 25.1151 16.1458 25.4041 16.1458C25.6931 16.1458 25.9275 15.9115 25.9275 15.6225V12.3776C25.9275 12.0886 25.6931 11.8542 25.4041 11.8542Z" fill="white"/>
<path d="M27.4766 11.8542C27.1876 11.8542 26.9532 12.0886 26.9532 12.3776V15.6225C26.9532 15.9115 27.1876 16.1458 27.4766 16.1458C27.7656 16.1458 28 15.9115 28 15.6225V12.3776C28 12.0886 27.7656 11.8542 27.4766 11.8542Z" fill="white"/>
</svg>
