<svg width="16" height="18" viewBox="0 0 16 18" fill="none" xmlns="http://www.w3.org/2000/svg">
<path fill-rule="evenodd" clip-rule="evenodd" d="M1.73052 11.6752C2.82578 10.1484 4.76553 9.00001 7.99996 9.00001C11.2344 9.00001 13.1741 10.1484 14.2694 11.6752C15.3279 13.1508 15.4965 14.8421 15.4999 15.778C15.5033 16.7191 14.7143 17.3333 13.9054 17.3333H2.0945C1.2856 17.3333 0.496626 16.7191 0.500011 15.778C0.503377 14.8421 0.671976 13.1508 1.73052 11.6752ZM2.16815 15.6667H13.8318C13.8146 14.8733 13.6439 13.6625 12.9151 12.6466C12.1862 11.6305 10.7957 10.6667 7.99996 10.6667C5.2042 10.6667 3.81373 11.6305 3.08478 12.6466C2.35604 13.6625 2.18536 14.8733 2.16815 15.6667Z" fill="white"/>
<path fill-rule="evenodd" clip-rule="evenodd" d="M8.00004 5.66667C8.92052 5.66667 9.66671 4.92048 9.66671 4.00001C9.66671 3.07953 8.92052 2.33334 8.00004 2.33334C7.07957 2.33334 6.33337 3.07953 6.33337 4.00001C6.33337 4.92048 7.07957 5.66667 8.00004 5.66667ZM8.00004 7.33334C9.84099 7.33334 11.3334 5.84095 11.3334 4.00001C11.3334 2.15906 9.84099 0.666672 8.00004 0.666672C6.15909 0.666672 4.66671 2.15906 4.66671 4.00001C4.66671 5.84095 6.15909 7.33334 8.00004 7.33334Z" fill="white"/>
</svg>
