<svg width="25" height="25" viewBox="0 0 25 25" fill="none" xmlns="http://www.w3.org/2000/svg">
<path d="M18.7564 10.0562L7.75641 3.85019C7.39718 3.64489 6.98998 3.53841 6.57624 3.54157C6.16249 3.54473 5.75697 3.65743 5.40091 3.86819C5.05403 4.06658 4.76583 4.35325 4.56561 4.69908C4.36538 5.04491 4.26026 5.43757 4.26091 5.83719V18.2492C4.26026 18.6488 4.36538 19.0415 4.56561 19.3873C4.76583 19.7331 5.05403 20.0198 5.40091 20.2182C5.757 20.4288 6.16251 20.5415 6.57624 20.5446C6.98996 20.5478 7.39715 20.4414 7.75641 20.2362L18.7564 14.0302C19.1112 13.8337 19.4069 13.5457 19.6127 13.1963C19.8186 12.8469 19.9272 12.4487 19.9272 12.0432C19.9272 11.6376 19.8186 11.2395 19.6127 10.89C19.4069 10.5406 19.1112 10.2527 18.7564 10.0562Z" fill="white"/>
</svg>
