<svg width="21" height="21" viewBox="0 0 21 21" fill="none" xmlns="http://www.w3.org/2000/svg">
<g clip-path="url(#clip0_235_5975)">
<path d="M10.8612 13.7054C10.688 13.7054 10.5224 13.6345 10.4033 13.5094L5.96757 8.86248C5.58314 8.4603 5.86872 7.79114 6.42551 7.79114H8.74898V2.93297C8.74898 2.35083 9.22297 1.87685 9.8051 1.87685H11.9174C12.4995 1.87685 12.9735 2.35083 12.9735 2.93297V7.79114H15.297C15.8537 7.79114 16.1393 8.4603 15.7549 8.86248L11.3192 13.5094C11.2 13.6345 11.0344 13.7054 10.8612 13.7054Z" fill="white"/>
<path d="M19.5214 18.7748H2.20099C1.38566 18.7748 0.722412 18.1116 0.722412 17.2963V16.8738C0.722412 16.0585 1.38566 15.3952 2.20099 15.3952H19.5214C20.3368 15.3952 21 16.0585 21 16.8738V17.2963C21 18.1116 20.3368 18.7748 19.5214 18.7748Z" fill="white"/>
</g>
<defs>
<clipPath id="clip0_235_5975">
<rect width="20.2776" height="20.2776" fill="white" transform="translate(0.722412 0.187048)"/>
</clipPath>
</defs>
</svg>
