<svg width="50" height="51" viewBox="0 0 50 51" fill="none" xmlns="http://www.w3.org/2000/svg">
<circle cx="25" cy="25.6841" r="25" fill="#FFE1CF"/>
<g clip-path="url(#clip0_10_3313)">
<path d="M25 15.8468C28.206 15.8468 28.5824 15.8611 29.8496 15.9183C31.0215 15.9707 31.655 16.166 32.079 16.3328C32.6411 16.5519 33.0413 16.8091 33.4605 17.2283C33.8797 17.6476 34.1417 18.0477 34.3561 18.6098C34.5181 19.0338 34.7182 19.6674 34.7706 20.8393C34.8277 22.1065 34.842 22.4828 34.842 25.6888C34.842 28.8949 34.8277 29.2712 34.7706 30.5384C34.7182 31.7103 34.5228 32.3439 34.3561 32.7678C34.137 33.33 33.8797 33.7301 33.4605 34.1493C33.0413 34.5686 32.6411 34.8306 32.079 35.0449C31.655 35.2069 31.0215 35.407 29.8496 35.4594C28.5824 35.5166 28.206 35.5308 25 35.5308C21.794 35.5308 21.4176 35.5166 20.1505 35.4594C18.9786 35.407 18.345 35.2117 17.921 35.0449C17.3589 34.8258 16.9587 34.5686 16.5395 34.1493C16.1203 33.7301 15.8583 33.33 15.6439 32.7678C15.4819 32.3439 15.2819 31.7103 15.2295 30.5384C15.1723 29.2712 15.158 28.8949 15.158 25.6888C15.158 22.4828 15.1723 22.1065 15.2295 20.8393C15.2819 19.6674 15.4772 19.0338 15.6439 18.6098C15.863 18.0477 16.1203 17.6476 16.5395 17.2283C16.9587 16.8091 17.3589 16.5471 17.921 16.3328C18.345 16.1708 18.9786 15.9707 20.1505 15.9183C21.4176 15.8564 21.7987 15.8468 25 15.8468ZM25 13.6841C21.7416 13.6841 21.3319 13.6984 20.0504 13.7555C18.7737 13.8127 17.9019 14.0175 17.1397 14.3129C16.349 14.6178 15.682 15.0322 15.0151 15.6992C14.3482 16.3661 13.9385 17.0378 13.6288 17.8238C13.3335 18.586 13.1286 19.4578 13.0715 20.7393C13.0143 22.016 13 22.4256 13 25.6841C13 28.9425 13.0143 29.3522 13.0715 30.6337C13.1286 31.9104 13.3335 32.7821 13.6288 33.5491C13.9337 34.3399 14.3482 35.0068 15.0151 35.6738C15.682 36.3407 16.3537 36.7504 17.1397 37.06C17.9019 37.3554 18.7737 37.5602 20.0552 37.6174C21.3366 37.6746 21.7416 37.6888 25.0048 37.6888C28.268 37.6888 28.6729 37.6746 29.9544 37.6174C31.2311 37.5602 32.1028 37.3554 32.8698 37.06C33.6606 36.7551 34.3275 36.3407 34.9945 35.6738C35.6614 35.0068 36.0711 34.3351 36.3807 33.5491C36.6761 32.7869 36.8809 31.9151 36.9381 30.6337C36.9953 29.3522 37.0095 28.9473 37.0095 25.6841C37.0095 22.4209 36.9953 22.016 36.9381 20.7345C36.8809 19.4578 36.6761 18.586 36.3807 17.8191C36.0758 17.0283 35.6614 16.3613 34.9945 15.6944C34.3275 15.0275 33.6558 14.6178 32.8698 14.3081C32.1076 14.0128 31.2358 13.8079 29.9544 13.7508C28.6681 13.6984 28.2584 13.6841 25 13.6841Z" fill="#E33C12"/>
<path d="M25.0003 19.5244C21.5989 19.5244 18.8359 22.2827 18.8359 25.6888C18.8359 29.0949 21.5942 31.8531 25.0003 31.8531C28.4064 31.8531 31.1646 29.0949 31.1646 25.6888C31.1646 22.2827 28.4064 19.5244 25.0003 19.5244ZM25.0003 29.6856C22.7899 29.6856 20.9987 27.8944 20.9987 25.684C20.9987 23.4736 22.7899 21.6824 25.0003 21.6824C27.2107 21.6824 29.0019 23.4736 29.0019 25.684C29.0019 27.8944 27.2107 29.6856 25.0003 29.6856Z" fill="#E33C12"/>
<path d="M31.4073 20.7152C32.2018 20.7152 32.846 20.0711 32.846 19.2766C32.846 18.482 32.2018 17.8379 31.4073 17.8379C30.6127 17.8379 29.9686 18.482 29.9686 19.2766C29.9686 20.0711 30.6127 20.7152 31.4073 20.7152Z" fill="#E33C12"/>
</g>
<defs>
<clipPath id="clip0_10_3313">
<rect width="24" height="24" fill="white" transform="translate(13 13.6841)"/>
</clipPath>
</defs>
</svg>
