<svg width="46" height="46" viewBox="0 0 46 46" fill="none" xmlns="http://www.w3.org/2000/svg">
<circle cx="23" cy="23" r="23" fill="#E33C12"/>
<g clip-path="url(#clip0_228_331)">
<path d="M19.5397 18.4883H20.9459C20.9459 17.0351 21.1529 15.3571 19.8142 14.0185C19.3938 13.5981 18.996 13.2652 18.6451 12.9715C17.717 12.1947 17.3404 11.8459 17.3404 11H15.9341V21.3784C15.431 21.041 14.8263 20.8438 14.1763 20.8438C12.4316 20.8438 11.0123 22.2631 11.0123 24.0078C11.0123 25.7525 12.4316 27.1719 14.1763 27.1719C15.9317 27.1719 17.3702 25.7322 17.3389 23.9492H17.3404V13.7085C17.7837 14.0958 18.2815 14.4745 18.8199 15.0128C19.7118 15.9049 19.5397 17.0757 19.5397 18.4883Z" fill="white"/>
<path d="M22.9409 18.2507V29.2066C22.4378 28.8691 21.8331 28.6719 21.1831 28.6719C19.4384 28.6719 18.019 30.0913 18.019 31.836C18.019 33.5807 19.4384 35.0001 21.1831 35.0001C22.9278 35.0001 24.3472 33.5807 24.3472 31.836V22.1844C26.6778 21.7228 31.2665 20.8141 33.5815 20.3556V26.394C33.0784 26.0566 32.4737 25.8594 31.8237 25.8594C30.079 25.8594 28.6597 27.2788 28.6597 29.0235C28.6597 30.7681 30.079 32.1875 31.8237 32.1875C33.5684 32.1875 34.9878 30.7681 34.9878 29.0235C34.9878 28.2483 34.9878 16.4535 34.9878 15.8625L22.9409 18.2507Z" fill="white"/>
</g>
<defs>
<clipPath id="clip0_228_331">
<rect width="24" height="24" fill="white" transform="translate(11 11)"/>
</clipPath>
</defs>
</svg>
