<svg width="22" height="18" viewBox="0 0 22 18" fill="none" xmlns="http://www.w3.org/2000/svg">
<path d="M21 12.7501C20.5859 12.7501 20.25 12.4142 20.25 12.0001V6.00006C20.25 5.58596 20.5859 5.25006 21 5.25006C21.4141 5.25006 21.75 5.58596 21.75 6.00006V12.0001C21.75 12.4142 21.4141 12.7501 21 12.7501Z" fill="#E33C12"/>
<path d="M17.6665 14.7501C17.2524 14.7501 16.9165 14.4142 16.9165 14.0001V4.00012C16.9165 3.58602 17.2524 3.25012 17.6665 3.25012C18.0806 3.25012 18.4165 3.58602 18.4165 4.00012V14.0001C18.4165 14.4142 18.0806 14.7501 17.6665 14.7501Z" fill="#E33C12"/>
<path d="M14.3335 11.7501C13.9194 11.7501 13.5835 11.4142 13.5835 11.0001V7.00012C13.5835 6.58602 13.9194 6.25012 14.3335 6.25012C14.7476 6.25012 15.0835 6.58602 15.0835 7.00012V11.0001C15.0835 11.4142 14.7476 11.7501 14.3335 11.7501Z" fill="#E33C12"/>
<path d="M11 15.7501C10.5859 15.7501 10.25 15.4142 10.25 15.0001V3.00006C10.25 2.58596 10.5859 2.25006 11 2.25006C11.4141 2.25006 11.75 2.58596 11.75 3.00006V15.0001C11.75 15.4142 11.4141 15.7501 11 15.7501Z" fill="#E33C12"/>
<path d="M7.6665 17.7501C7.2524 17.7501 6.9165 17.4142 6.9165 17.0001V1.00012C6.9165 0.586022 7.2524 0.250122 7.6665 0.250122C8.0806 0.250122 8.4165 0.586022 8.4165 1.00012V17.0001C8.4165 17.4142 8.0806 17.7501 7.6665 17.7501Z" fill="#E33C12"/>
<path d="M4.3335 13.75C3.9194 13.75 3.5835 13.4141 3.5835 13V5C3.5835 4.5859 3.9194 4.25 4.3335 4.25C4.7476 4.25 5.0835 4.5859 5.0835 5V13C5.0835 13.4141 4.7476 13.75 4.3335 13.75Z" fill="#E33C12"/>
<path d="M1 12.7501C0.5859 12.7501 0.25 12.4142 0.25 12.0001V6.00006C0.25 5.58596 0.5859 5.25006 1 5.25006C1.4141 5.25006 1.75 5.58596 1.75 6.00006V12.0001C1.75 12.4142 1.4141 12.7501 1 12.7501Z" fill="#E33C12"/>
</svg>
