<svg width="20" height="21" viewBox="0 0 20 21" fill="none" xmlns="http://www.w3.org/2000/svg">
<path d="M17.6801 8.20903L4.84585 0.968149C4.42671 0.728623 3.95161 0.604385 3.46887 0.608074C2.98613 0.611763 2.51298 0.743247 2.09756 0.989151C1.69283 1.22063 1.35657 1.5551 1.12296 1.9586C0.889345 2.3621 0.76669 2.82024 0.767456 3.28649V17.7682C0.76669 18.2345 0.889345 18.6926 1.12296 19.0961C1.35657 19.4996 1.69283 19.8341 2.09756 20.0656C2.51302 20.3114 2.98616 20.4428 3.46887 20.4465C3.95158 20.4502 4.42667 20.326 4.84585 20.0866L17.6801 12.8457C18.0941 12.6164 18.4391 12.2805 18.6793 11.8728C18.9195 11.4651 19.0462 11.0006 19.0462 10.5274C19.0462 10.0542 18.9195 9.58962 18.6793 9.18194C18.4391 8.77425 18.0941 8.43832 17.6801 8.20903Z" fill="#E33C12"/>
</svg>
